<?xml version="1.0" standalone="no"?>
<!DOCTYPE svg PUBLIC "-//W3C//DTD SVG 20010904//EN"
 "http://www.w3.org/TR/2001/REC-SVG-20010904/DTD/svg10.dtd">
<svg version="1.0" xmlns="http://www.w3.org/2000/svg"
 width="572.000000pt" height="572.000000pt" viewBox="0 0 572.000000 572.000000"
 preserveAspectRatio="xMidYMid meet">
<metadata>
Created by potrace 1.14, written by Peter Selinger 2001-2017
</metadata>
<g transform="translate(0.000000,572.000000) scale(0.100000,-0.100000)"
fill="#000000" stroke="none">
<path d="M3857 4624 c-1 -1 -22 -5 -47 -8 -63 -8 -98 -16 -135 -31 -206 -79
-359 -213 -461 -403 -38 -71 -78 -176 -89 -231 -2 -12 -7 -31 -10 -41 -30 -94
-51 -433 -34 -562 3 -27 1 -48 -3 -48 -5 0 -6 -4 -3 -10 3 -5 8 -38 10 -72 2
-35 7 -99 9 -143 3 -44 9 -129 13 -190 9 -135 9 -410 1 -485 -7 -63 -34 -136
-59 -164 -10 -10 -33 -19 -51 -20 -80 -5 -155 49 -199 144 -22 47 -69 188 -67
199 1 3 -2 17 -5 31 -4 14 -9 41 -12 60 -2 19 -7 44 -9 56 -2 12 -7 45 -11 74
-4 29 -9 62 -11 74 -2 12 -6 44 -9 71 -3 28 -7 61 -10 75 -3 14 -7 45 -10 70
-3 25 -8 56 -10 70 -3 14 -7 43 -11 65 -9 63 -19 122 -24 135 -1 3 -2 8 -1 13
1 4 -13 65 -29 135 -42 174 -123 401 -150 417 -6 4 -8 10 -5 15 3 4 -2 13 -10
20 -8 7 -15 16 -15 21 0 9 -48 87 -60 99 -3 3 -19 23 -35 45 -37 49 -124 136
-167 166 -18 13 -35 26 -38 29 -30 37 -291 157 -377 175 -10 2 -49 10 -86 19
-37 9 -87 18 -110 21 -23 3 -73 9 -112 13 -116 14 -1371 13 -1373 -1 -1 -7 -3
-686 -4 -1510 -2 -992 0 -1497 7 -1498 49 -4 1766 -1 1770 3 4 4 9 626 6 676
-1 9 -117 12 -546 12 -300 0 -546 3 -546 8 -7 37 -5 1610 2 1618 10 12 562 13
609 1 14 -4 39 -8 55 -11 127 -18 276 -109 370 -226 81 -101 157 -309 190
-520 2 -14 6 -36 9 -50 9 -53 18 -117 21 -150 2 -19 6 -48 10 -65 3 -16 8 -48
11 -70 2 -22 7 -55 10 -73 3 -18 7 -56 10 -84 3 -29 9 -59 14 -68 5 -10 7 -19
5 -22 -3 -2 2 -36 10 -74 8 -38 17 -85 20 -103 11 -64 64 -231 99 -311 83
-192 201 -322 359 -397 51 -24 162 -59 212 -67 17 -2 50 -8 75 -12 48 -7 246
-8 295 0 17 3 48 8 70 11 22 4 45 8 50 9 6 1 16 5 23 9 6 5 12 6 12 3 0 -3 24
3 53 15 28 11 57 21 62 22 6 2 40 21 76 44 115 72 211 197 267 348 12 32 43
155 47 192 2 12 6 35 10 52 20 91 21 640 1 796 -23 187 -25 689 -3 712 4 3 7
15 7 26 0 12 12 46 27 77 27 59 58 82 116 87 35 3 85 -21 112 -54 11 -14 28
-34 38 -46 16 -19 100 -184 131 -257 35 -85 104 -304 110 -350 1 -9 5 -21 9
-27 4 -6 11 -31 17 -55 5 -24 13 -61 19 -83 5 -22 12 -51 15 -65 3 -14 7 -34
10 -45 20 -88 49 -219 57 -260 5 -27 11 -61 14 -75 3 -14 7 -37 10 -52 3 -14
17 -80 31 -145 14 -65 27 -129 29 -143 5 -31 16 -82 50 -235 22 -101 46 -212
60 -275 8 -36 68 -245 71 -249 8 -9 716 -6 721 2 3 5 1 19 -5 30 -22 48 -65
177 -94 287 -6 25 -13 50 -14 55 -2 6 -6 24 -9 40 -3 17 -10 44 -16 62 -10 30
-19 72 -23 103 -1 8 -7 33 -13 55 -11 37 -18 73 -28 135 -2 14 -11 57 -20 95
-9 39 -18 77 -20 85 -6 30 -17 100 -16 105 0 2 -5 19 -10 37 -5 18 -12 49 -15
68 -3 19 -8 44 -12 55 -3 11 -7 22 -7 25 -2 9 -17 94 -22 120 -2 14 -8 39 -13
55 -5 17 -11 44 -14 60 -2 17 -9 53 -16 80 -6 28 -14 61 -16 75 -3 14 -7 32
-10 40 -3 8 -8 26 -10 39 -12 59 -84 319 -112 401 -3 8 -6 20 -7 27 -16 72
-157 399 -180 415 -5 4 -6 8 -2 8 4 0 -8 25 -28 55 -19 31 -35 60 -35 65 0 6
-4 10 -8 10 -4 0 -15 12 -24 28 -39 65 -201 232 -225 232 -6 0 -13 4 -15 8 -5
12 -106 72 -121 72 -7 0 -17 4 -22 9 -13 11 -130 48 -180 56 -37 7 -213 14
-218 9z"/>
<path d="M149 1165 c-3 -2 -16 -6 -31 -9 -72 -13 -104 -58 -99 -138 1 -19 51
-81 59 -74 3 3 10 2 16 -3 7 -6 23 -12 36 -15 129 -26 177 -77 122 -131 -13
-14 -32 -25 -41 -26 -9 0 -23 -2 -32 -4 -29 -5 -77 26 -93 60 -17 36 -39 49
-67 40 -23 -8 -24 -22 -2 -66 15 -30 53 -70 67 -70 3 0 20 -6 38 -13 78 -31
183 6 224 79 15 27 10 88 -9 115 -20 29 -71 60 -102 62 -14 1 -25 5 -25 8 0 3
-8 7 -17 8 -57 6 -93 24 -99 48 -8 33 1 53 31 64 50 19 91 12 118 -20 14 -16
27 -33 29 -38 1 -5 13 -12 25 -16 16 -5 25 -2 33 13 17 34 -11 88 -57 108 -36
15 -116 27 -124 18z"/>
<path d="M2417 1164 c-1 -2 -14 -5 -29 -8 -51 -9 -128 -65 -128 -93 0 -7 -4
-13 -10 -13 -5 0 -10 -13 -10 -29 0 -16 -4 -40 -8 -53 -14 -36 14 -138 48
-180 33 -40 100 -75 155 -81 60 -6 174 30 202 65 10 12 16 74 14 135 -1 27
-27 37 -101 38 -51 1 -100 -11 -100 -24 1 -21 23 -34 62 -35 54 -2 67 -10 63
-39 -7 -56 -31 -72 -115 -76 -91 -4 -147 64 -145 176 1 105 58 165 149 157 33
-4 50 -13 84 -49 45 -45 64 -49 83 -14 20 39 -34 99 -104 116 -24 5 -106 10
-110 7z"/>
<path d="M2939 1159 c-20 -12 -21 -415 -1 -431 8 -7 63 -12 140 -12 111 -1
129 1 145 17 18 18 18 20 3 35 -13 13 -37 16 -116 16 -55 0 -101 3 -101 6 -1
3 -2 83 -4 178 -1 113 -6 177 -13 184 -15 15 -36 18 -53 7z"/>
<path d="M3575 1156 c-59 -18 -83 -36 -111 -84 -31 -52 -36 -72 -36 -140 1
-107 72 -203 162 -218 63 -11 81 -10 127 7 57 22 111 70 120 109 3 14 9 30 13
35 12 18 4 149 -12 186 -40 92 -155 138 -263 105z m135 -73 c16 -9 37 -33 46
-51 18 -39 26 -141 11 -159 -5 -7 -7 -13 -3 -13 4 0 -1 -11 -9 -24 -54 -83
-172 -81 -223 4 -26 42 -22 171 5 209 43 56 112 70 173 34z"/>
<path d="M4878 1163 c-14 -4 -48 -58 -49 -80 -1 -5 -7 -19 -14 -33 -18 -35
-32 -68 -53 -125 -10 -27 -23 -59 -27 -70 -5 -11 -9 -22 -10 -25 -1 -3 -7 -18
-13 -33 -16 -37 -15 -74 1 -84 33 -21 45 -10 78 72 l17 40 83 1 c98 1 114 -5
122 -45 3 -16 17 -41 30 -57 23 -26 26 -27 41 -12 20 21 21 60 1 98 -9 17 -15
31 -15 32 1 3 -18 53 -39 103 -5 11 -17 40 -27 65 -42 105 -63 148 -79 154
-18 6 -20 6 -47 -1z m39 -115 c4 -7 8 -19 9 -26 2 -7 10 -35 20 -61 24 -68 18
-77 -52 -76 -42 0 -58 4 -56 13 1 7 4 20 6 30 4 22 15 53 27 74 5 10 9 27 9
38 0 22 24 27 37 8z"/>
<path d="M5369 1154 c-18 -22 -20 -396 -2 -420 11 -15 32 -18 143 -19 71 0
130 3 130 8 0 4 4 6 9 3 8 -6 21 15 21 34 0 16 -57 26 -137 24 -47 -1 -86 2
-89 8 -4 5 -6 87 -7 181 0 146 -2 174 -16 184 -22 17 -36 16 -52 -3z"/>
<path d="M632 1144 c-13 -14 -16 -84 -13 -311 1 -112 9 -120 121 -117 109 3
137 9 182 41 100 68 98 282 -2 367 -17 14 -37 27 -43 27 -7 1 -61 3 -122 4
-84 2 -113 -1 -123 -11z m231 -69 c14 -9 31 -32 37 -50 12 -35 15 -113 6 -153
-7 -30 -45 -84 -56 -77 -5 3 -11 1 -15 -5 -9 -14 -125 -10 -126 4 -7 56 -5
292 2 297 20 12 127 1 152 -16z"/>
<path d="M1275 1146 c-12 -9 -15 -48 -16 -207 -1 -230 9 -271 56 -219 15 17
18 40 19 169 1 142 2 149 19 134 9 -9 16 -21 15 -27 -3 -17 24 -130 34 -141 4
-5 8 -18 8 -30 0 -72 53 -144 83 -113 13 13 35 73 53 143 4 17 8 32 9 35 1 3
8 33 15 68 23 101 35 77 36 -68 1 -138 13 -190 44 -190 27 0 33 43 34 249 1
128 -2 188 -10 196 -7 6 -34 11 -60 11 -52 -1 -65 -14 -78 -76 -3 -14 -12 -50
-21 -80 -9 -30 -18 -62 -20 -70 -2 -8 -4 -16 -5 -17 -3 -4 -7 -20 -9 -34 -1
-8 -5 -8 -15 0 -8 7 -25 56 -37 109 -13 53 -24 100 -25 105 -1 4 -2 13 -3 20
-3 30 -22 42 -66 43 -25 0 -52 -4 -60 -10z"/>
<path d="M4143 1145 c-16 -12 -18 -32 -18 -207 0 -145 3 -197 13 -209 10 -12
33 -15 115 -12 88 2 113 4 160 12 19 3 65 59 67 81 6 64 0 83 -37 116 -20 19
-32 34 -27 34 14 0 54 72 50 90 -18 92 -38 103 -188 106 -84 1 -122 -2 -135
-11z m217 -58 c17 -8 25 -22 27 -43 4 -47 -23 -65 -102 -70 -60 -3 -67 -2 -74
18 -6 18 -7 58 -2 101 2 12 124 8 151 -6z m31 -196 c10 -12 16 -29 14 -39 -2
-9 -4 -24 -4 -33 -1 -24 -57 -43 -128 -44 -50 -1 -63 2 -64 14 -5 63 -4 108 4
118 6 8 33 11 85 9 63 -3 79 -8 93 -25z"/>
</g>
</svg>
